HIERARCHY
ROOT Hips
{
	OFFSET 0.000000 0.000000 0.000000 
	CHANNELS 6 Xposition Yposition Zposition Yrotation Zrotation Xrotation 
	JOINT Lumbar
	{
		OFFSET 0.000000 0.000000 0.000000 
		CHANNELS 3 Zrotation Xrotation Yrotation
		JOINT Neck
		{
			OFFSET 0.000000 0.445665 0.000000 
			CHANNELS 3 Zrotation Xrotation Yrotation
			End Site
			{
				OFFSET 0.000000 0.227535 0.000000 
			}
		}
		JOINT RightShoulder
		{
			OFFSET 0.019635 0.377685 0.194865 
			CHANNELS 3 Zrotation Xrotation Yrotation
			JOINT RightElbow
			{
				OFFSET 0.000000 -0.243375 0.000000 
				CHANNELS 2 Zrotation Yrotation
				JOINT RightWrist
				{
					OFFSET 0.000000 -0.264825 0.000000 
					CHANNELS 2 Zrotation Xrotation
					End Site
					{
						OFFSET 0.006600 -0.176220 0.000990 
					}
				}
			}
		}
		JOINT LeftShoulder
		{
			OFFSET 0.019635 0.377685 -0.194865 
			CHANNELS 3 Zrotation Xrotation Yrotation
			JOINT LeftElbow
			{
				OFFSET 0.000000 -0.243375 0.000000 
				CHANNELS 2 Zrotation Yrotation
				JOINT LeftWrist
				{
					OFFSET 0.000000 -0.264825 0.000000 
					CHANNELS 2 Zrotation Xrotation
					End Site
					{
						OFFSET 0.006600 -0.176220 -0.000990 
					}
				}
			}
		}
	}
	JOINT RightHip
	{
		OFFSET 0.052140 -0.069960 0.075570 
		CHANNELS 3 Zrotation Xrotation Yrotation
		JOINT RightKnee
		{
			OFFSET 0.000000 -0.402270 0.000000 
			CHANNELS 1 Zrotation
			JOINT RightAnkle
			{
				OFFSET 0.000000 -0.404085 0.000000 
				CHANNELS 3 Zrotation Xrotation Yrotation
				End Site
				{
					OFFSET 0.204105 -0.089430 0.008415 
				}
			}
		}
	}
	JOINT LeftHip
	{
		OFFSET 0.052140 -0.069960 -0.075570 
		CHANNELS 3 Zrotation Xrotation Yrotation
		JOINT LeftKnee
		{
			OFFSET 0.000000 -0.402270 0.000000 
			CHANNELS 1 Zrotation
			JOINT LeftAnkle
			{
				OFFSET 0.000000 -0.404085 0.000000 
				CHANNELS 3 Zrotation Xrotation Yrotation
				End Site
				{
					OFFSET 0.204105 -0.089430 -0.008415 
				}
			}
		}
	}
}
MOTION
Frames: 25
Frame Time: 0.02
-0.00208 -0.00114 0.00017 175.93196 -29.33456 2.2931 46.72203 -0.88867 -7.71101 -15.81487 2.81682 -0.0966 -27.33314 -9.97994 3.05124 30.75897 56.41897 -2.34025 -5.13185 -28.15267 -0.42954 22.94935 36.5847 -170.57744 36.53765 -11.68479 29.35033 -3.37054 -3.14311 -20.35269 -7.47616 -5.2971 -3.51271 32.99195 3.04306 -2.6706 -24.48114 -6.96934 4.41851 2.98082
-0.00168 -0.00123 0.00021 175.87921 -29.30464 2.29833 46.7014 -0.88345 -7.70381 -15.81706 2.82895 -0.09703 -26.96995 -9.11928 -0.32531 30.60628 64.46145 -0.28404 -3.84233 -28.19755 0.34094 20.71708 36.55024 -164.39252 34.60598 -10.662 29.35347 -3.41168 -3.30585 -20.37846 -7.45116 -5.2796 -3.50037 32.97181 3.12978 -2.22695 -24.49077 -6.94715 4.37934 2.95435
-0.00129 -0.00132 0.00025 175.8267 -29.27492 2.30356 46.68071 -0.87822 -7.69659 -15.81924 2.84117 -0.09747 -26.60736 -8.26138 -3.69184 30.45318 72.47882 1.76568 -2.55675 -28.24212 1.10927 18.4914 36.51592 -158.2268 32.68044 -9.64236 29.35686 -3.4527 -3.46805 -20.40422 -7.42624 -5.26217 -3.48807 32.95199 3.21627 -1.7845 -24.50043 -6.92502 4.34027 2.92795
-0.00089 -0.00142 0.00028 175.77413 -29.24507 2.30877 46.66017 -0.87302 -7.68942 -15.82146 2.85327 -0.0979 -26.24525 -7.40332 -7.05826 30.30082 80.49686 3.81562 -1.27112 -28.28686 1.87739 16.266 36.48154 -152.06096 30.75475 -8.62272 29.35996 -3.49372 -3.63031 -20.42991 -7.40131 -5.24472 -3.47576 32.93188 3.30273 -1.3422 -24.51003 -6.9029 4.30122 2.90156
-0.0005 -0.00151 0.00032 175.7213 -29.21508 2.31397 46.63962 -0.86781 -7.68226 -15.82357 2.86527 -0.09833 -25.8826 -6.54267 -10.43396 30.14919 88.53907 5.87186 0.01826 -28.3319 2.64764 14.03401 36.44711 -145.87583 28.82283 -7.59995 29.36291 -3.53487 -3.79302 -20.45561 -7.37632 -5.22722 -3.46341 32.91153 3.38941 -0.89872 -24.51961 -6.88072 4.26208 2.8751
-0.0001 -0.0016 0.00036 175.66946 -29.18599 2.31926 46.61859 -0.86253 -7.67487 -15.82584 2.87796 -0.09878 -25.5201 -5.69068 -13.78067 29.99304 96.50318 7.9076 1.29566 -28.37541 3.41191 11.82167 36.41307 -139.75128 26.91083 -6.58692 29.36733 -3.5756 -3.95408 -20.48149 -7.35157 -5.20992 -3.45121 32.89292 3.47548 -0.45845 -24.52946 -6.8587 4.22315 2.84883
0.00028 -0.0017 0.0004 175.61567 -29.15483 2.32435 46.59884 -0.85748 -7.66805 -15.8281 2.88918 -0.09918 -25.15807 -4.82178 -17.18342 29.84615 104.61799 9.9829 2.59617 -28.42217 4.18718 9.57263 36.37806 -133.512 24.961 -5.55547 29.3683 -3.61715 -4.11855 -20.50694 -7.32631 -5.19221 -3.43871 32.87034 3.5627 -0.01232 -24.53869 -6.83636 4.18387 2.82221
0.00069 -0.00179 0.00043 175.5637 -29.12611 2.32967 46.57738 -0.85204 -7.66054 -15.82981 2.90186 -0.09966 -24.79489 -3.96923 -20.53196 29.69072 112.58957 12.02071 3.87462 -28.46556 4.95264 7.35669 36.34435 -127.37776 23.04579 -4.54089 29.37334 -3.65791 -4.27937 -20.53284 -7.30159 -5.17491 -3.42651 32.85231 3.64884 0.42862 -24.54858 -6.81435 4.14487 2.7959
0.00111 -0.00188 0.00047 175.51388 -29.09831 2.3351 46.55592 -0.84681 -7.65284 -15.83306 2.91594 -0.1001 -24.43291 -3.1333 -23.82576 29.52464 120.40629 14.01752 5.1296 -28.50631 5.70516 5.1832 36.31059 -121.37236 21.17319 -3.54698 29.37989 -3.69782 -4.4378 -20.5591 -7.27724 -5.15799 -3.41461 32.83638 3.73375 0.86255 -24.55895 -6.79261 4.10634 2.77001
0.00139 -0.00197 0.0005 175.45146 -29.05902 2.33939 46.54072 -0.84247 -7.64816 -15.83408 2.9208 -0.10037 -24.07185 -2.19162 -27.46927 29.41919 129.17504 16.26478 6.5302 -28.56669 6.52929 2.77137 36.2722 -114.62684 19.05626 -2.43424 29.36731 -3.74297 -4.61623 -20.58275 -7.24992 -5.13852 -3.40077 32.79793 3.82601 1.33485 -24.56556 -6.76892 4.06549 2.74186
0.00199 -0.00207 0.00056 175.41577 -29.04789 2.3464 46.50832 -0.83491 -7.63588 -15.83556 2.94586 -0.10122 -23.70393 -1.4796 -30.35244 29.18634 135.89562 17.97422 7.6167 -28.58281 7.20406 0.85881 36.24671 -109.4425 17.45441 -1.57225 29.40172 -3.77687 -4.74845 -20.61224 -7.22941 -5.12466 -3.39117 32.81367 3.90259 1.7274 -24.58076 -6.74959 4.02932 2.71838
0.00319 -0.00221 0.00068 175.45351 -29.08332 2.35841 46.45987 -0.82904 -7.61293 -15.87222 3.02076 -0.10179 -23.35454 -1.34844 -31.32352 28.59623 137.2835 18.27431 7.89253 -28.49828 7.45101 0.35905 36.23085 -108.58545 17.28218 -1.40457 29.51391 -3.78177 -4.78768 -20.65599 -7.22307 -5.12431 -3.39191 32.9269 3.93691 1.88831 -24.6156 -6.74046 4.00775 2.70853
0.00475 -0.00236 0.00085 175.51839 -29.15322 2.37373 46.3876 -0.81783 -7.58059 -15.90243 3.11693 -0.10327 -22.98963 -1.45591 -31.50524 27.87983 136.57302 18.02432 7.84559 -28.36459 7.5512 0.35302 36.23226 -109.28782 17.62376 -1.48759 29.68394 -3.77541 -4.77563 -20.70661 -7.22429 -5.12984 -3.39709 33.10541 3.95511 1.97081 -24.66064 -6.73614 3.9906 2.70326
0.00629 -0.00248 0.00103 175.57045 -29.2268 2.38901 46.30686 -0.80239 -7.5457 -15.91419 3.20707 -0.10559 -22.60955 -1.48788 -31.92616 27.22593 136.6202 17.97972 7.91019 -28.2409 7.7304 0.09269 36.24322 -109.24851 17.72013 -1.45171 29.85946 -3.77254 -4.76325 -20.75438 -7.22515 -5.13401 -3.40117 33.28575 3.98047 2.09851 -24.70249 -6.73066 3.97017 2.69531
0.00719 -0.00268 0.00106 175.62341 -29.21678 2.39765 46.31071 -0.81567 -7.53899 -16.01868 3.28209 -0.10268 -22.33017 -1.38591 -32.82365 26.54931 137.44278 18.11286 8.11379 -28.17274 7.85779 -0.0417 36.18275 -109.3523 17.86856 -1.43702 29.89618 -3.77498 -4.8449 -20.79823 -7.21354 -5.13303 -3.40166 33.32761 4.00743 2.18862 -24.73473 -6.72048 3.95487 2.68976
0.00953 -0.00274 0.00141 175.68245 -29.39154 2.42149 46.12875 -0.76705 -7.47212 -15.92538 3.39343 -0.11078 -21.8287 -1.6136 -32.57459 25.89125 136.21264 17.75721 7.96229 -27.97287 8.05774 -0.31966 36.27269 -109.52684 18.02831 -1.43798 30.24169 -3.7656 -4.72561 -20.85534 -7.22906 -5.14369 -3.41035 33.68042 4.02604 2.33473 -24.7938 -6.7217 3.93027 2.68047
0.01551 -0.00236 0.00256 175.73802 -30.04624 2.48101 45.47164 -0.55547 -7.23411 -15.31435 3.60225 -0.14996 -20.79073 -2.74425 -29.06825 25.30351 129.29985 16.08001 6.81408 -27.45831 8.49941 -1.13231 36.7945 -109.51255 18.10623 -1.41679 31.37533 -3.71021 -4.00322 -20.92037 -7.32304 -5.18895 -3.4434 34.81609 4.03618 2.68678 -24.88865 -6.74899 3.87602 2.65823
0.02296 -0.00185 0.00402 175.80096 -30.88922 2.55645 44.62121 -0.28025 -6.93672 -14.49972 3.8469 -0.20003 -19.51552 -4.18968 -24.48694 24.73944 120.47729 13.94513 5.33573 -26.80557 9.01813 -2.10389 37.46297 -109.51286 18.17329 -1.40332 32.82747 -3.64632 -3.09144 -21.00526 -7.44306 -5.24494 -3.48402 36.27368 4.03669 3.09189 -25.01809 -6.78831 3.81279 2.63233
0.02988 -0.00143 0.00538 175.86991 -31.66106 2.62851 43.83968 -0.03022 -6.67203 -13.76042 4.07301 -0.24454 -18.30191 -5.45634 -20.58675 24.17442 112.89574 12.09589 4.07334 -26.19244 9.49814 -2.99082 38.05096 -109.51116 18.23938 -1.38895 34.16634 -3.59691 -2.30663 -21.09665 -7.54763 -5.29348 -3.51936 37.62296 4.03437 3.45166 -25.15358 -6.82492 3.7556 2.60909
0.03621 -0.00087 0.0066 175.90177 -32.37554 2.68551 43.14204 0.20301 -6.38512 -13.09253 4.30754 -0.2917 -17.28552 -6.87858 -15.85296 23.5703 103.72982 9.91943 2.52877 -25.67733 9.98892 -3.91093 38.69884 -109.55568 18.35649 -1.37258 35.37287 -3.50233 -1.34861 -21.11578 -7.6677 -5.35325 -3.5627 38.81372 4.06105 3.89835 -25.19235 -6.85024 3.69034 2.58185
0.04413 -0.00059 0.00816 176.01045 -33.25082 2.77623 42.2182 0.48783 -6.12769 -12.22882 4.53507 -0.33589 -15.79888 -8.05284 -12.60157 23.04646 97.35732 8.29816 1.48844 -24.92357 10.4771 -4.80865 39.25543 -109.47293 18.34781 -1.35863 36.93179 -3.4999 -0.70549 -21.29877 -7.76159 -5.3919 -3.59104 40.41078 4.02634 4.17755 -25.44711 -6.90166 3.63961 2.56195
0.05612 -0.00091 0.01062 176.34478 -34.55027 2.96849 40.76904 0.88573 -5.99015 -10.86439 4.71493 -0.36923 -13.10119 -8.42567 -13.78974 22.81364 99.88452 8.54444 2.00205 -23.56458 10.94289 -5.58554 39.53299 -109.15219 18.08226 -1.35089 39.3722 -3.75529 -0.99241 -21.85688 -7.77652 -5.37128 -3.57672 43.04843 3.81538 3.98282 -26.23623 -7.02363 3.63206 2.56374
0.06968 -0.00156 0.01342 176.75308 -36.0006 3.19202 39.09063 1.33544 -5.87968 -9.31206 4.89014 -0.39919 -9.93406 -8.54399 -16.49663 22.64896 105.1778 9.33117 3.02056 -21.96678 11.40326 -6.34003 39.71132 -108.67581 17.67346 -1.34379 42.15986 -4.10386 -1.60049 -22.59402 -7.76407 -5.3287 -3.54688 46.08512 3.54487 3.61828 -27.25249 -7.17097 3.63927 2.57293
0.08253 -0.00218 0.01604 177.11741 -37.36369 3.39291 37.48157 1.77105 -5.74144 -7.85185 5.08009 -0.4307 -6.96134 -8.80399 -18.45607 22.40246 108.72801 9.72137 3.75722 -20.46543 11.86472 -7.12127 39.92982 -108.18267 17.26758 -1.33421 44.79552 -4.40861 -2.05243 -23.29502 -7.7645 -5.29507 -3.52373 48.93908 3.30748 3.33022 -28.19854 -7.30602 3.6391 2.57838
0.09542 -0.00229 0.01875 177.52604 -38.80961 3.62917 36.00747 2.17092 -5.66732 -6.35498 5.21765 -0.46258 -4.05601 -8.96647 -20.61394 22.36499 114.21056 10.71316 4.70543 -19.01001 12.3354 -7.8404 40.17647 -108.04952 17.11611 -1.33433 47.41231 -4.71801 -2.54042 -23.80042 -7.76463 -5.26621 -3.50246 51.80564 3.04363 3.04486 -29.00222 -7.44556 3.64135 2.58528
